<?xml version="1.0" encoding="UTF-8"?>
<svg id="Layer_1" data-name="Layer 1" xmlns="http://www.w3.org/2000/svg" viewBox="0 0 100 100">
  <defs>
    <style>
      .cls-1 {
        fill: #4d4d4d;
      }

      .cls-2 {
        fill: #ccc;
      }
    </style>
  </defs>
  <rect class="cls-2" width="100" height="100" rx="12" ry="12"/>
  <g>
    <path class="cls-1" d="m81.13,50.37c-.36,1.08-.89,2.04-1.99,2.55-1.33.62-2.6.49-3.77-.38-.26-.19-.49-.43-.72-.66-7.61-7.61-15.22-15.22-22.83-22.83-1.29-1.29-2.36-1.3-3.65-.01-7.65,7.65-15.31,15.31-22.96,22.96-1.41,1.41-3.02,1.69-4.57.82-1.82-1.02-2.34-3.49-1.09-5.16.21-.27.44-.53.68-.77,7.65-7.66,15.3-15.31,22.96-22.96,3.9-3.9,9.69-3.9,13.58-.02,2.05,2.05,4.1,4.1,6.15,6.15.15.15.31.3.58.55,0-1.25,0-2.37,0-3.49,0-1.12.33-2.12,1.2-2.88,1.13-.98,2.44-1.19,3.79-.6,1.47.64,2.14,1.86,2.15,3.44.02,3.3.02,6.61,0,9.91,0,.57.15.97.56,1.38,2.71,2.67,5.39,5.39,8.1,8.07.8.79,1.54,1.6,1.83,2.73v1.22Z"/>
    <path class="cls-1" d="m55.78,78.96v-15.83h-11.59v15.83c-.23.02-.38.03-.54.03-3.18,0-6.36.02-9.55,0-3.43-.02-6.01-2.21-6.56-5.56-.06-.38-.06-.77-.06-1.15,0-4.82,0-9.65-.01-14.47,0-.77.24-1.35.78-1.89,6.74-6.73,13.48-13.46,20.21-20.2,1.07-1.07,1.96-1.07,3.03-.01,6.74,6.73,13.47,13.47,20.21,20.2.54.53.8,1.12.79,1.88-.02,4.92,0,9.85-.02,14.77-.01,3.15-2.24,5.77-5.33,6.33-.38.07-.77.09-1.15.09-3.24,0-6.49,0-9.73,0-.14,0-.27-.02-.51-.03Z"/>
  </g>
</svg>