<?xml version="1.0" encoding="UTF-8"?>
<svg id="Layer_1" data-name="Layer 1" xmlns="http://www.w3.org/2000/svg" viewBox="0 0 100 100">
  <defs>
    <style>
      .cls-1 {
        fill: #4d4d4d;
      }

      .cls-2 {
        fill: #ccc;
      }
    </style>
  </defs>
  <rect class="cls-2" width="100" height="100" rx="12" ry="12"/>
  <g>
    <path class="cls-1" d="m83.56,62.47c1.06-6.58-3.94-11.88-9.91-11.84-5.84.04-10.82,5.23-9.78,11.8h-25.21c1.08-7.01-4.55-12.06-10.29-11.8-5.69.26-10.47,5.38-9.45,11.77-4.06.82-8.09-2.31-8.22-6.44-.07-2.47-.06-4.94,0-7.41.06-2.92,2.49-5.32,5.42-5.39,1.61-.04,3.22-.03,4.83,0,.48,0,.81-.12,1.13-.5,2.38-2.82,4.82-5.59,7.17-8.44,1.68-2.03,3.75-2.97,6.39-2.94,5.72.06,11.44.04,17.16,0,1.93,0,3.6.58,5.08,1.82,3.42,2.87,6.92,5.67,10.3,8.59,1.25,1.09,2.6,1.66,4.21,1.92,4.1.67,8.18,1.45,12.26,2.2,2.8.52,4.65,2.75,4.67,5.61.01,1.87.03,3.74,0,5.61-.06,2.81-2.27,5.16-5.06,5.42-.22.02-.45,0-.68,0Zm-30.33-19.32s0,.02,0,.03c2.88,0,5.76,0,8.65,0,.51,0,1.02-.02,1.22-.6.21-.6-.14-.97-.58-1.31-2.61-2.05-5.21-4.13-7.84-6.15-.4-.31-.98-.52-1.49-.53-2.88-.05-5.76-.03-8.65-.02-1.28,0-2.02.76-2.03,2.05-.01,1.45,0,2.91,0,4.36,0,1.43.72,2.16,2.15,2.16,2.86.01,5.71,0,8.57,0Zm-21.05,0c1.35,0,2.7.02,4.05,0,1.11-.02,1.88-.76,1.9-1.85.03-1.61.03-3.22,0-4.83-.02-1.1-.78-1.84-1.88-1.88-.65-.02-1.32-.1-1.94.02-.57.12-1.24.35-1.61.76-1.79,1.98-3.51,4.03-5.22,6.09-.22.27-.38.84-.24,1.09.16.3.67.56,1.04.58,1.29.07,2.6.03,3.89.02Zm14.06,6.86c.47,0,.94.03,1.4,0,1-.08,1.73-.89,1.73-1.86,0-.97-.75-1.8-1.74-1.85-.9-.05-1.81-.04-2.72,0-1,.05-1.75.85-1.77,1.82-.02,1,.74,1.82,1.78,1.89.44.03.88,0,1.32,0Z"/>
    <path class="cls-1" d="m28.81,52.51c4.49.03,8.1,3.67,8.09,8.17-.01,4.43-3.69,8.06-8.14,8.04-4.49-.02-8.1-3.67-8.09-8.17.02-4.43,3.7-8.07,8.13-8.04Zm3.72,8.13c0-2.08-1.69-3.77-3.76-3.76-2.04.01-3.71,1.69-3.72,3.72,0,2.07,1.68,3.76,3.76,3.76,2.03,0,3.72-1.69,3.72-3.72Z"/>
    <path class="cls-1" d="m73.67,68.72c-4.49-.03-8.09-3.69-8.06-8.19.03-4.43,3.72-8.06,8.16-8.02,4.49.04,8.09,3.69,8.06,8.2-.02,4.43-3.7,8.04-8.16,8.02Zm3.79-8.09c0-2.08-1.69-3.77-3.76-3.76-2.04,0-3.71,1.68-3.72,3.72,0,2.07,1.68,3.76,3.76,3.76,2.03,0,3.72-1.69,3.72-3.72Z"/>
  </g>
</svg>