<?xml version="1.0" encoding="UTF-8"?>
<svg id="Layer_1" data-name="Layer 1" xmlns="http://www.w3.org/2000/svg" viewBox="0 0 100 100">
  <defs>
    <style>
      .cls-1 {
        fill: #4d4d4d;
      }

      .cls-2 {
        fill: #ccc;
      }
    </style>
  </defs>
  <rect class="cls-2" width="100" height="100" rx="12" ry="12"/>
  <path class="cls-1" d="m38.63,61.37h-.89c-4.78,0-9.56-.07-14.34.03-2.69.05-4.78-1.88-4.74-4.75.07-4.44.07-8.89,0-13.34-.04-2.84,2.05-4.76,4.7-4.71,4.78.09,9.56.03,14.34.03.27,0,.53,0,.92,0v-.8c0-4.8.07-9.6-.03-14.4-.06-2.73,1.9-4.81,4.8-4.75,4.4.08,8.8.08,13.2,0,2.93-.05,4.85,2.04,4.8,4.75-.09,4.78-.03,9.56-.03,14.34,0,.26,0,.52,0,.87.33,0,.59,0,.85,0,4.8,0,9.6.06,14.4-.02,2.67-.05,4.74,1.86,4.7,4.71-.06,4.47-.01,8.94-.02,13.4,0,2.9-1.76,4.65-4.65,4.65-4.8,0-9.6,0-14.4,0-.26,0-.52,0-.89,0,0,.32,0,.58,0,.84,0,4.8-.06,9.6.03,14.4.05,2.67-1.86,4.77-4.76,4.72-4.49-.07-8.98-.01-13.47-.02-2.25,0-3.94-1.27-4.42-3.31-.1-.45-.11-.93-.11-1.39,0-4.78,0-9.56,0-14.34v-.9Z"/>
</svg>