<?xml version="1.0" encoding="UTF-8"?>
<svg id="Layer_2" data-name="Layer 2" xmlns="http://www.w3.org/2000/svg" viewBox="0 0 156.31 157.39">
  <defs>
    <style>
      .cls-1 {
        fill: #4d4d4d;
      }
    </style>
  </defs>
  <g id="Layer_1-2" data-name="Layer 1">
    <path class="cls-1" d="m51.43,152.62c40.55,14.86,85.38-6.19,100.14-47.02,9.35-25.88,4.38-53.49-10.84-74.03l-6.46,17.88c7.83,15.24,9.54,33.6,3.26,51-11.94,33.02-48.19,50.04-80.98,38.03-1.94-.71-3.82-1.51-5.65-2.38l18.01-49.81h13.01l-11.26,31.16,26,.07,34.82-96.34c-7.46-7.02-16.41-12.67-26.61-16.4C64.33-10.09,19.49,10.96,4.73,51.79-4.62,77.67.35,105.28,15.57,125.81l6.46-17.88c-7.83-15.24-9.54-33.6-3.26-51C30.71,23.92,66.97,6.89,99.76,18.91c1.94.71,3.82,1.51,5.65,2.38l-18.05,49.95h-13.01l11.31-31.29-26-.07-34.82,96.34c7.46,7.02,16.41,12.67,26.61,16.4Z"/>
  </g>
</svg>