<?xml version="1.0" encoding="UTF-8"?>
<svg id="Layer_2" data-name="Layer 2" xmlns="http://www.w3.org/2000/svg" viewBox="0 0 255.8 349.57">
  <defs>
    <style>
      .cls-1 {
        fill: #fff;
      }
    </style>
  </defs>
  <g id="Layer_1-2" data-name="Layer 1">
    <g>
      <path class="cls-1" d="m.04,155.64c0-45.53,0-91.06,0-136.59C.04,6.14,6.16,0,19.04,0,91.64,0,164.24,0,236.84,0c12.65,0,18.82,6.18,18.83,18.85,0,90.69-.07,181.37.14,272.06.02,7.37-2.78,11.88-9.18,14.54-2.33.97-3.04,2.29-2.99,4.77.16,8.6.1,17.21.05,25.82-.05,9.68-6.03,14.89-15.51,13.22-32.64-5.75-65.25-11.64-97.88-17.44-38.88-6.9-77.77-13.79-116.66-20.61-7.77-1.36-13.29-7.59-13.54-15.99-.16-5.36-.04-10.73-.04-16.09,0-41.16,0-82.33,0-123.49Zm8.04.02c0,45.78,0,91.56,0,137.34,0,7.8,2.73,10.5,10.6,10.53.12,0,.25,0,.37,0,67.23,0,134.47,0,201.7,0,8.01,0,15.47-2.21,22.77-5.29,2.98-1.26,4.19-3.08,4.19-6.54-.11-91.06-.09-182.12-.1-273.18,0-7.89-2.63-10.49-10.58-10.49-72.72,0-145.45,0-218.17,0-8.23,0-10.78,2.52-10.78,10.66,0,45.65,0,91.31,0,136.96Zm227.54,153.84c-1.79.38-3,.85-4.21.85-3.39-.01-4.09,1.76-3.88,4.78.24,3.6.09,7.23.05,10.85-.06,4.35-1.45,5.72-5.67,5.31-24.2-2.32-48.39-4.7-72.58-7.05-9.03-.88-18.07-1.71-27.11-2.57.25.49.55.65.87.7,17.9,3.22,35.79,6.44,53.69,9.63,17.66,3.15,35.32,6.27,52.99,9.38,3.66.64,5.76-.6,5.81-3.8.14-9.21.05-18.43.05-28.09Zm-130.76,2.08c-.05.11-.1.23-.16.34,38.22,3.69,76.45,7.37,114.76,11.06v-11.4h-114.6Z"/>
      <path class="cls-1" d="m127.73,219.22c-33.9.03-66.84-23.34-67.64-68.24-.65-36.56,30.71-67.08,67.69-67.14,37.07-.06,68.7,30.81,67.84,67.37-1.07,45.65-34.78,68.22-67.89,68Zm-19.87-71.68h40.02c-.58-6.73-1.13-13.13-1.67-19.5h-36.75c-.54,6.57-1.06,12.96-1.6,19.5Zm1.63,28.02h36.75c.53-6.6,1.04-13.08,1.57-19.62h-39.98c.56,6.69,1.11,13.09,1.66,19.62Zm34.86-55.95c-2.11-8.55-4.35-16.59-9.6-23.33-4.57-5.87-9.2-5.89-13.76-.05-5.31,6.81-7.61,14.89-9.61,23.38h32.97Zm-33,64.33c2.29,8.94,4.51,17.62,10.69,24.52,3.76,4.2,7.53,4.35,11.24.38,6.5-6.95,8.79-15.79,11-24.9h-32.93Zm-43.91-36.37h32.33c.55-6.55,1.09-12.95,1.66-19.75-9.05,0-18.1-.03-27.14.06-.63,0-1.64.8-1.81,1.41-1.71,5.9-3.29,11.83-5.04,18.27Zm32.33,8.34h-31.47c.12,1.33.12,2.43.32,3.49.59,3.05,1.09,6.14,1.93,9.12,2.03,7.21,2.1,7.19,9.4,7.19h21.51c-.58-6.84-1.12-13.15-1.68-19.8Zm54.5,19.79c8.97,0,17.93.03,26.88-.06.67,0,1.69-.67,1.94-1.28,2.4-5.86,4.14-11.88,4.19-18.33h-31.38c-.55,6.66-1.08,12.98-1.64,19.67Zm33.88-28.12c-1.66-6.29-3.14-12.13-4.79-17.91-.21-.74-1.26-1.76-1.93-1.77-9.05-.12-18.1-.08-27.17-.08.57,6.77,1.1,13.17,1.65,19.76h32.23Zm-9.84-27.97c-8.82-13.04-20.06-21.38-34.31-25.46,3.15,8.53,6.22,16.86,9.4,25.46h24.92Zm-100.58-.24h24.63c3.15-8.49,6.22-16.78,9.26-24.96-11.95,2.27-26.47,12.82-33.89,24.96Zm-.24,64.56c8.7,13,19.95,21.28,34.21,25.45-3.14-8.5-6.21-16.81-9.39-25.45h-24.82Zm66.46,25.48c14.4-4.28,25.65-12.57,34.22-25.41h-24.77c-3.22,8.68-6.28,16.91-9.44,25.41Z"/>
      <path class="cls-1" d="m123.71,243.65c19.08,0,38.15,0,57.23,0,1.24,0,2.77-.35,3.67.23,1.28.83,2.86,2.37,2.88,3.63.02,1.26-1.51,2.86-2.76,3.73-.86.6-2.41.26-3.66.26-38.15,0-76.3,0-114.45,0-1,0-2.29.35-2.93-.14-1.4-1.07-3.25-2.49-3.43-3.94-.13-1.09,1.89-2.74,3.29-3.6.92-.56,2.43-.17,3.68-.17,18.83,0,37.65,0,56.48,0Z"/>
      <path class="cls-1" d="m195.77,48.34c0,3.69,0,7.17,0,10.66,0,2.71-1.02,4.85-3.96,4.86-3.14.01-4.12-2.13-4.1-5.07.07-9.85,0-19.71.04-29.56.02-3.84,1.33-5.15,5.16-5.25,3.24-.08,6.49-.08,9.73,0,5.92.15,9.04,3.21,9.01,9.08-.03,4.52,1.05,9.3-2.68,13.16-.45.47-.08,1.89.14,2.82.69,3.03,1.47,6.05,2.25,9.06.7,2.68.18,4.8-2.76,5.55-2.99.76-4.36-1.06-5.04-3.64-.75-2.89-1.72-5.76-2.12-8.7-.48-3.51-2.36-3.91-5.68-2.96Zm.28-16.15v7.64h7.37v-7.64h-7.37Z"/>
      <path class="cls-1" d="m112.17,55.75h7.28c1.11-3.71.22-6.17-3.53-7.33-1.29-.4-2.39-1.39-3.68-1.8-7.31-2.31-9.19-7.58-8.37-14.61.51-4.43,3.02-7.51,7.49-7.92,2.97-.27,6-.31,8.96-.01,6.11.62,10.07,8.38,6.97,13.71-.62,1.06-2.46,2.14-3.58,1.99-1.29-.17-2.85-1.46-3.48-2.69-.69-1.32-.45-3.13-.63-4.9h-7.29c-1.11,3.71-.21,6.18,3.53,7.33,1.29.4,2.46,1.19,3.69,1.8,8.03,4.01,8.9,5.54,8.31,14.61-.29,4.47-2.97,7.5-7.45,7.91-2.96.28-6,.31-8.96,0-6.12-.63-10.07-8.38-6.96-13.71.62-1.06,2.47-2.14,3.58-1.99,1.29.17,2.84,1.47,3.48,2.69.69,1.33.45,3.13.64,4.91Z"/>
      <path class="cls-1" d="m159.86,43.62c0-3.49-.03-6.98.02-10.48.02-1.24.04-2.54.4-3.7,1.45-4.67,6.46-6.38,15.58-5.45,4.53.47,7.64,3.12,7.79,7.6.27,8.22.08,16.46.07,24.69,0,.49-.16.98-.28,1.47-1.35,5.36-6.05,7.21-15.75,6.2-4.85-.5-7.59-3.43-7.81-8.36-.01-.25-.01-.5-.01-.75,0-3.74,0-7.48,0-11.23Zm8.11-11.5v23.6h7.56v-23.6h-7.56Z"/>
      <path class="cls-1" d="m84.27,32.27c-1.14,3.47-.3,5.78,3.21,7.09,2.44.91,4.67,2.35,7.05,3.43,5.2,2.36,6.39,6.4,5.03,14.9-.71,4.44-4.04,6.28-10.03,6.31-.87,0-1.75,0-2.62,0-8.56-.01-11.73-3.57-10.88-12.06.26-2.58,1.72-4.27,4.03-3.76,1.46.32,2.77,2.27,3.68,3.77.56.92.22,2.38.29,3.8h7.46c1.47-3.86.06-6.14-3.65-7.37-1.17-.39-2.23-1.09-3.34-1.65-8.46-4.29-9.5-6.22-8.4-15.59.41-3.46,2.28-6.16,5.64-6.59,4.14-.52,8.51-.68,12.57.08,4.94.93,7.81,9.72,4.74,13.63-.75.96-2.72,1.74-3.82,1.44-1.27-.35-2.54-1.81-3.14-3.09-.52-1.12-.11-2.68-.11-4.33h-7.73Z"/>
      <path class="cls-1" d="m62.55,55.95c-1.79,0-3.54.12-5.26-.02-4.54-.38-8.53-.31-9.76,5.55-.49,2.34-2.92,2.98-5.21,1.91-2.37-1.11-2.68-3.19-1.8-5.38,2.35-5.89,4.82-11.74,7.24-17.6,1.52-3.68,2.85-7.45,4.65-10.99.68-1.34,2.51-3.01,3.72-2.94,1.45.09,3.47,1.59,4.08,2.99,4.09,9.34,7.86,18.82,11.75,28.25,1.05,2.56.8,4.71-2.01,5.84-2.65,1.06-4.25-.3-5.27-2.67-.68-1.6-1.38-3.19-2.14-4.94Zm-3.34-8.25c-1.02-2.41-1.85-4.38-2.94-6.96-1.07,2.61-1.89,4.62-2.84,6.96h5.78Z"/>
      <path class="cls-1" d="m28.1,47.86c0,3.95-.02,7.41,0,10.87.02,2.83-.88,5.15-4.08,5.12-3.16-.03-4.01-2.27-3.99-5.16.07-9.73,0-19.45.04-29.18.01-4.12,1.26-5.45,5.26-5.53,3.49-.07,6.99-.14,10.47.04,5.06.26,8.03,3.36,8.19,8.37.08,2.62.13,5.24-.03,7.85-.27,4.4-3.27,7.36-7.69,7.6-2.58.14-5.17.03-8.17.03Zm7.61-7.97v-7.59h-7.26v7.59h7.26Z"/>
      <path class="cls-1" d="m139.82,47.89c0,4.11-.04,7.7.01,11.29.04,2.84-1.22,4.68-4.08,4.68-2.7,0-3.94-1.87-3.94-4.47-.03-10.2-.03-20.4,0-30.6,0-3.19,1.72-4.8,4.89-4.82,3.61-.02,7.22-.14,10.82.04,5.11.25,7.99,3.23,8.18,8.29.09,2.48.1,4.98,0,7.46-.21,5.11-3.09,7.93-8.27,8.12-2.34.08-4.69.01-7.6.01Zm7.78-8v-7.65h-7.53v7.65h7.53Z"/>
      <path class="cls-1" d="m123.87,271.53c-10.1,0-20.21-.02-30.31.01-2.88.01-5.46-.4-5.47-4.01,0-3.61,2.63-4.05,5.47-4.05,20.21,0,40.42.01,60.63,0,2.91,0,5.52.61,5.51,4.06-.01,3.44-2.56,4.04-5.51,4.02-10.1-.07-20.21-.03-30.31-.03Z"/>
      <path class="cls-1" d="m223.67,31.95c-1.78,0-3.41.47-4.42-.11-1.42-.81-3.24-2.38-3.3-3.69-.05-1.3,1.8-3.76,2.95-3.84,5.82-.39,11.69-.38,17.51.01,1.12.08,2.92,2.55,2.86,3.86-.06,1.3-1.87,2.81-3.25,3.67-.9.56-2.42.1-4.3.1,0,1.34,0,2.52,0,3.69,0,7.22,0,14.45,0,21.67,0,4.73-1.25,6.82-4.14,6.57-4.01-.35-3.94-3.37-3.92-6.37.05-8.33.02-16.66.02-25.56Z"/>
    </g>
  </g>
</svg>