<?xml version="1.0" encoding="UTF-8"?>
<svg id="Layer_1" data-name="Layer 1" xmlns="http://www.w3.org/2000/svg" viewBox="0 0 1080 180.13">
  <defs>
    <style>
      .cls-1 {
        fill: #17a755;
      }

      .cls-2, .cls-3 {
        fill: #174a43;
      }

      .cls-3 {
        fill-rule: evenodd;
      }
    </style>
  </defs>
  <path class="cls-2" d="m218.87,35.21v109.61h22.68v-45.14h44.02v45.14h22.68V35.21h-22.68v45.98h-44.02v-45.98h-22.68Z"/>
  <path class="cls-3" d="m366.06,95.21l-22.68,3.24c-15.84,2.26-24,10.26-24,22.59s7.99,23.87,28.3,23.87c3.32,0,6.65.01,10.04.03,9.31.04,19,.07,29.83-.15v-52.34c0-17.26-12.6-25.57-30.68-25.57-8.45,0-18.82,1.23-30.39,3.85v16.18c10.67-2.77,18.23-3.85,26.09-3.85,9.04,0,13.49,3.24,13.49,9.86v2.31Zm-14.38,15.41l14.38-1.92v21.74c-5.15.06-7.41.06-10.75.06h-1.55c-8.74,0-12.6-4.78-12.6-9.71,0-5.24,2.79-9.13,10.52-10.17h0Z"/>
  <path class="cls-2" d="m492.79,97.52c0-9.86-3.71-14.48-11.41-14.48-4.45,0-9.04,1.39-13.79,2.93.44,2.47.74,5.39.74,8.47v50.38h-21.49v-48.07c0-9.24-3.56-13.71-10.82-13.71-3.07,0-6.15.37-9.32.75h0c-1.42.17-2.85.34-4.32.49v60.55h-21.49v-74.11c13.19-2,25.79-3.85,39.43-3.85,9.04,0,15.86,2,20.46,6.16,10.08-3.39,19.12-6.16,29.05-6.16,16.6,0,24.46,8.94,24.46,27.58v50.38h-21.49v-47.3Z"/>
  <path class="cls-2" d="m527.62,35.21v109.61h21.49v-37.44l24.61,37.44h24.6l-28.9-41.6,28.9-35.44h-24.6l-24.61,31.89V35.21h-21.49Z"/>
  <path class="cls-3" d="m631.53,145.75c-21.93,0-36.76-11.4-36.76-35.28v-8.32c0-23.88,14.82-35.28,36.76-35.28s36.76,10.94,36.76,35.28v8.32c0,23.88-14.83,35.28-36.76,35.28Zm15.27-44.68c0-12.17-5.04-18.03-15.27-18.03s-15.27,5.85-15.27,18.03v10.32c0,12.33,4.89,18.18,15.27,18.18s15.27-5.85,15.27-18.18v-10.32Z"/>
  <path class="cls-2" d="m725.06,86.89v-16.95c-3.71-2.16-8.75-2.93-14.83-2.93-9.04,0-20.01,1.69-30.98,3.7v74.11h21.49v-59.16c4.15-.92,7.85-1.39,11.41-1.39,4.89,0,9.19.92,12.9,2.62Z"/>
  <path class="cls-2" d="m1009.85,36.73v109.01h21.32v-37.23l24.41,37.23h24.41l-28.68-41.37,28.68-35.24h-24.41l-24.41,31.72V36.73h-21.32Z"/>
  <path class="cls-3" d="m796.17,145.75h-45.77V37.71h43.26c22.22,0,35.11,8.95,35.11,28.09,0,11.11-5.78,18.68-13.48,23.15,12.3,4.01,19.41,12.96,19.41,27.32,0,19.91-14.22,29.48-38.52,29.48Zm-23.11-48.62v30.71h21.92c10.81,0,17.03-5.25,17.03-15.44s-6.07-15.28-16.88-15.28h-22.07Zm0-41.67v26.08h18.81c9.04,0,14.22-4.17,14.22-12.97s-4.89-13.12-14.22-13.12h-18.81Z"/>
  <path class="cls-3" d="m869.6,99.5l22.5-3.22h0s0-2.3,0-2.3c0-6.59-4.41-9.81-13.38-9.81-7.79,0-15.3,1.07-25.89,3.83v-16.09c11.47-2.6,21.77-3.83,30.15-3.83,17.94,0,30.44,8.27,30.44,25.43v52.05c-10.74.22-20.36.18-29.59.15h-.05c-3.34-.01-6.64-.03-9.91-.03-20.15,0-28.08-12.09-28.08-23.74,0-12.26,8.09-20.22,23.81-22.46Zm22.5,10.19l-14.26,1.91c-7.68,1.03-10.44,4.9-10.44,10.11,0,4.9,3.82,9.65,12.5,9.65.55,0,1.06,0,1.55,0,3.31,0,5.55,0,10.65-.06v-21.62Z"/>
  <path class="cls-2" d="m961.65,83.86c8,0,12,4.17,12,12.97v48.92h21.48v-50.47c0-18.68-9.48-27.63-29.04-27.63-14.22,0-27.4,1.85-40.58,3.86v74.24h21.48v-60.5c.86-.11,1.72-.22,2.58-.34h0c3.99-.53,7.94-1.05,12.09-1.05h0Z"/>
  <path class="cls-1" d="m58.86,174.68c46.41,17.01,97.72-7.09,114.61-53.82,10.71-29.62,5.01-61.22-12.41-84.72l-7.4,20.46c8.96,17.44,10.92,38.46,3.73,58.37-13.66,37.79-55.16,57.28-92.69,43.52-2.22-.81-4.37-1.72-6.46-2.73l20.61-57.01h14.89l-12.89,35.66,29.76.08,39.86-110.26c-8.53-8.03-18.78-14.5-30.45-18.77C73.62-11.55,22.31,12.54,5.42,59.27c-10.71,29.62-5.01,61.22,12.41,84.72l7.4-20.46c-8.96-17.44-10.92-38.46-3.73-58.37C35.15,27.37,76.65,7.89,114.18,21.64c2.22.81,4.37,1.72,6.46,2.73l-20.66,57.16h-14.89l12.95-35.81-29.76-.08-39.86,110.26c8.53,8.03,18.78,14.5,30.45,18.77Z"/>
</svg>