<?xml version="1.0" encoding="UTF-8"?>
<svg id="Layer_1" data-name="Layer 1" xmlns="http://www.w3.org/2000/svg" xmlns:xlink="http://www.w3.org/1999/xlink" viewBox="0 0 100 100">
  <defs>
    <style>
      .cls-1 {
        fill: #fff;
      }

      .cls-2 {
        fill: url(#linear-gradient);
      }
    </style>
    <linearGradient id="linear-gradient" x1="0" y1="0" x2="100" y2="100" gradientUnits="userSpaceOnUse">
      <stop offset="0" stop-color="#49f594"/>
      <stop offset="1" stop-color="#0e8955"/>
    </linearGradient>
  </defs>
  <rect class="cls-2" width="100" height="100"/>
  <path class="cls-1" d="m86.22,50c0-10.4-4.51-20.32-12.37-27.21,0,0-.02-.01-.02-.02,0,0-.01,0-.02-.01-6.44-5.63-14.68-8.81-23.22-8.95,0,0,0,0,0,0,0,0,0,0,0,0h-.16c-.14-.02-.28-.03-.43-.03s-.28,0-.43.02h-.16s0,0,0,0c0,0,0,0,0,0-8.54.14-16.79,3.32-23.23,8.95,0,0,0,0-.01.01,0,0-.02.01-.03.02-7.86,6.89-12.37,16.81-12.37,27.21s3.93,19.13,11.07,26.03c6.62,6.4,15.34,10.01,24.55,10.16,0,0,0,0,0,0h.16c.15.02.29.03.44.03s.29,0,.44-.02h.16s0-.01,0-.01c9.21-.15,17.93-3.76,24.55-10.16,7.14-6.9,11.07-16.14,11.07-26.03Zm-12.43,22.33c-2.48-1.97-5.17-3.61-8.05-4.91,2.2-4.99,3.43-10.23,3.65-15.63h13.21c-.41,7.71-3.49,14.9-8.81,20.54Zm-22.01-52.67c3.11,2.64,5.81,5.75,7.97,9.18-2.63.78-5.29,1.24-7.97,1.39v-10.57Zm-3.57,0v10.57c-2.68-.14-5.35-.61-7.97-1.39,2.16-3.42,4.87-6.54,7.97-9.18Zm14.21,46.43c-3.46-1.19-7.02-1.88-10.64-2.05v-12.25h14.03c-.22,4.94-1.36,9.73-3.39,14.31Zm-14.21-2.05c-3.61.17-7.18.86-10.64,2.05-2.04-4.57-3.17-9.37-3.39-14.31h14.03v12.25Zm0,3.58v12.72c-3.63-3.1-6.7-6.84-9.02-11.02,2.94-.97,5.97-1.54,9.02-1.7Zm3.57,12.72v-12.72c3.06.16,6.08.73,9.02,1.7-2.33,4.18-5.39,7.92-9.02,11.02Zm0-32.12v-14.41c3.29-.16,6.57-.75,9.78-1.78,2.54,5.03,4,10.56,4.25,16.19h-14.03Zm11.42-20.59c-2.2-3.65-4.97-6.98-8.16-9.86,5.34.84,10.4,3,14.72,6.29-2.04,1.41-4.23,2.61-6.56,3.57Zm-26.41,0c-2.32-.96-4.52-2.15-6.56-3.57,4.32-3.29,9.38-5.45,14.72-6.29-3.19,2.87-5.95,6.21-8.16,9.86Zm1.64,4.4c3.21,1.02,6.49,1.62,9.78,1.78v14.41h-14.03c.25-5.63,1.71-11.17,4.25-16.19Zm-7.83,19.76c.22,5.39,1.44,10.64,3.65,15.63-2.88,1.3-5.58,2.94-8.05,4.91-5.32-5.65-8.39-12.83-8.81-20.54h13.21Zm5.22,18.83c2.36,4.36,5.46,8.3,9.14,11.62-5.96-.92-11.53-3.48-16.14-7.42,2.16-1.67,4.51-3.08,7-4.2Zm28.34,0c2.49,1.12,4.84,2.53,7,4.2-4.61,3.94-10.18,6.5-16.14,7.42,3.67-3.32,6.77-7.25,9.14-11.62Zm18.43-22.4h-13.21c-.25-6.05-1.78-12.01-4.46-17.44,2.72-1.15,5.28-2.59,7.64-4.32,5.99,5.74,9.58,13.52,10.03,21.75ZM27.43,26.46c2.36,1.72,4.92,3.17,7.64,4.32-2.68,5.43-4.21,11.39-4.46,17.44h-13.21c.45-8.23,4.04-16.01,10.03-21.75Z"/>
</svg>