<?xml version="1.0" encoding="UTF-8"?>
<svg id="Layer_1" data-name="Layer 1" xmlns="http://www.w3.org/2000/svg" xmlns:xlink="http://www.w3.org/1999/xlink" viewBox="0 0 100 100">
  <defs>
    <style>
      .cls-1 {
        fill: #fff;
      }

      .cls-2 {
        fill: url(#linear-gradient);
      }
    </style>
    <linearGradient id="linear-gradient" x1="0" y1="0" x2="100" y2="100" gradientUnits="userSpaceOnUse">
      <stop offset="0" stop-color="#e65e5e"/>
      <stop offset="1" stop-color="#d90101"/>
    </linearGradient>
  </defs>
  <rect class="cls-2" width="100" height="100"/>
  <path class="cls-1" d="m87.84,34.91c-.68-5.37-4.99-9.59-10.38-10.07-27.42-2.43-43.37-1.02-55.06,0-5.65.5-10.09,5.03-10.53,10.68-.9,11.61-.54,21.7-.01,28.55.43,5.55,4.76,9.95,10.29,10.61,27.88,3.32,44.63,1.31,55.42.06,5.28-.61,9.47-4.73,10.17-10.01,1.42-10.73.99-22.81.1-29.83Zm-46.58,26.22v-22.26l19.92,11.13-19.92,11.13Z"/>
</svg>